<?xml version="1.0" encoding="UTF-8" standalone="no"?>
<!-- Created with Inkscape (http://www.inkscape.org/) -->

<svg
   xmlns:dc="http://purl.org/dc/elements/1.1/"
   xmlns:cc="http://creativecommons.org/ns#"
   xmlns:rdf="http://www.w3.org/1999/02/22-rdf-syntax-ns#"
   xmlns:svg="http://www.w3.org/2000/svg"
   xmlns="http://www.w3.org/2000/svg"
   xmlns:xlink="http://www.w3.org/1999/xlink"
   xmlns:sodipodi="http://sodipodi.sourceforge.net/DTD/sodipodi-0.dtd"
   xmlns:inkscape="http://www.inkscape.org/namespaces/inkscape"
   width="864"
   height="864"
   id="svg2997"
   version="1.1"
   inkscape:version="0.48.2 r9819"
   inkscape:export-filename="/home/jassuncao/m80_launcher_48x48.png"
   inkscape:export-xdpi="6.02"
   inkscape:export-ydpi="6.02"
   sodipodi:docname="New document 2">
  <defs
     id="defs2999">
    <linearGradient
       id="linearGradient3899">
      <stop
         style="stop-color:#280b0b;stop-opacity:1;"
         offset="0"
         id="stop3901" />
      <stop
         style="stop-color:#a82e2e;stop-opacity:1;"
         offset="1"
         id="stop3903" />
    </linearGradient>
    <linearGradient
       inkscape:collect="always"
       id="linearGradient3858">
      <stop
         style="stop-color:#ffffff;stop-opacity:1;"
         offset="0"
         id="stop3860" />
      <stop
         style="stop-color:#ffffff;stop-opacity:0;"
         offset="1"
         id="stop3862" />
    </linearGradient>
    <linearGradient
       inkscape:collect="always"
       xlink:href="#linearGradient3858"
       id="linearGradient3864"
       x1="410"
       y1="72.571426"
       x2="410"
       y2="778.61096"
       gradientUnits="userSpaceOnUse" />
    <linearGradient
       inkscape:collect="always"
       xlink:href="#linearGradient3899"
       id="linearGradient3905"
       x1="422.85715"
       y1="895.42859"
       x2="417.14285"
       y2="-36.000019"
       gradientUnits="userSpaceOnUse" />
  </defs>
  <sodipodi:namedview
     id="base"
     pagecolor="#000900"
     bordercolor="#666666"
     borderopacity="1.0"
     inkscape:pageopacity="0"
     inkscape:pageshadow="2"
     inkscape:zoom="0.35"
     inkscape:cx="-229.11135"
     inkscape:cy="482.89536"
     inkscape:document-units="px"
     inkscape:current-layer="layer3"
     showgrid="false"
     inkscape:window-width="1600"
     inkscape:window-height="837"
     inkscape:window-x="-3"
     inkscape:window-y="-3"
     inkscape:window-maximized="1" />
  <metadata
     id="metadata3002">
    <rdf:RDF>
      <cc:Work
         rdf:about="">
        <dc:format>image/svg+xml</dc:format>
        <dc:type
           rdf:resource="http://purl.org/dc/dcmitype/StillImage" />
        <dc:title></dc:title>
      </cc:Work>
    </rdf:RDF>
  </metadata>
  <g
     inkscape:groupmode="layer"
     id="layer3"
     inkscape:label="Background"
     style="display:none">
    <rect
       style="fill:url(#linearGradient3905);fill-opacity:1;stroke:none"
       id="rect3881"
       width="1085.714"
       height="1065.7142"
       x="-108.57143"
       y="-127.42857"
       ry="12.857142" />
  </g>
  <g
     inkscape:label="Layer 1"
     inkscape:groupmode="layer"
     id="layer1"
     transform="translate(0,-188.36218)"
     style="display:inline">
    <rect
       style="fill:#ffffff;fill-opacity:1;stroke:none;stroke-width:2.31999999999999984;stroke-linejoin:round;stroke-miterlimit:4;stroke-opacity:1;stroke-dasharray:none"
       id="rect3047"
       width="717.6795"
       height="717.67957"
       x="73.160248"
       y="261.5224"
       ry="50" />
    <g
       id="g3817"
       transform="translate(4.2857119,22.912684)">
      <g
         style="fill:#d3232e;fill-opacity:1"
         inkscape:label="#mLetter"
         id="mLetter"
         transform="matrix(1.7491727,0,0,1.7491727,84.304372,14.391289)">
        <path
           id="path3099-6"
           style="fill:#d3232e;fill-opacity:1"
           d="m 89.061845,264.33785 c 0.326649,-53.04767 0.405499,-54.97373 2.53595,-61.94538 1.209351,-3.95745 4.234552,-10.54851 6.722682,-14.64678 5.017203,-8.26401 8.769013,-12.49431 19.336953,-19.77092 8.20515,-5.48109 13.05443,-6.8623 19.16245,-8.51043 10.23001,-2.66126 23.71228,-2.27781 33.57841,0.95502 8.06472,2.64256 17.4016,7.99754 22.75054,13.04812 l 2.82895,2.67115 6.17105,-4.67667 c 6.56498,-4.97521 17.26349,-10.3694 24.67105,-12.43915 6.53589,-1.82619 24.38189,-1.6713 30.57336,0.26536 9.65164,3.01898 21.01801,9.62216 27.62096,16.04613 6.77985,6.59607 13.35261,17.91698 16.40359,28.2535 1.57756,5.34468 1.81144,11.97983 2.14129,60.75 l 0.3703,54.75 -19.05475,0 -19.05475,0 -0.006,-52.75 c -0.003,-31.7424 -0.40002,-54.1699 -0.99602,-56.31535 -1.39897,-5.03598 -7.55716,-11.81659 -12.75568,-14.04493 -14.21619,-6.09377 -29.56276,-0.8715 -35.07178,11.93455 -2.05807,4.78411 -2.11512,6.28693 -2.2037,58.0435 l -0.0905,53.13223 -18.43815,0 -18.43816,0 0,-52.46249 c 0,-49.99275 -0.094,-52.71382 -1.99758,-57.80148 -3.23931,-8.65783 -10.56214,-14.30437 -20.00061,-15.42222 -10.53833,-1.24811 -21.80391,4.30457 -26.72018,13.17007 l -2.78163,5.01612 -0.29085,53.75 -0.29084,53.75 -18.50674,0 -18.506736,0 0.337131,-54.75 z"
           inkscape:connector-curvature="0"
           sodipodi:nodetypes="cssccsscssssssccccsssscccssssccccccc" />
      </g>
      <g
         style="fill:#001a4d;fill-opacity:1"
         id="g3103-6-2"
         transform="translate(-17.947704,392.12163)">
        <path
           id="path3099-6-5"
           style="fill:#001a4d;fill-opacity:1"
           d="m 301.83485,510.71434 c -33.92218,-7.02998 -59.40077,-31.43122 -67.15335,-64.31381 -7.25627,-30.77748 0.70768,-62.54876 20.48169,-81.70956 l 8.91914,-8.64254 -5.78422,-6.58787 c -18.78832,-21.3987 -22.23552,-54.03571 -8.67532,-82.1351 5.12071,-10.61111 20.96419,-27.22208 31.36209,-32.88134 40.28543,-21.92607 91.49683,-5.41919 111.88094,36.06237 11.70464,23.81888 8.80204,55.65578 -6.95641,76.30092 l -7.13531,9.34796 8.66596,9.16297 c 29.71449,31.4187 30.84855,84.17483 2.49281,115.96484 -21.4984,24.10213 -56.8404,35.90894 -88.09802,29.43116 z m 37.8501,-45.3324 c 9.50551,-4.42635 16.27343,-11.36417 22.21077,-22.76839 5.6652,-10.8815 5.46331,-30.77757 -0.4176,-41.15292 -5.82107,-10.26978 -15.04768,-17.41388 -24.58957,-19.03957 l -7.77013,-1.32381 -0.48906,-21.1242 -0.48907,-21.12418 7.91124,-3.02133 c 22.17208,-8.46759 28.30858,-39.77727 11.06677,-56.46491 -28.20761,-27.301 -73.88951,0.92873 -60.068,37.11981 3.15503,8.26133 14.50183,19.48279 21.46843,21.2313 3.86464,0.96997 3.98255,1.61536 3.98255,21.80001 0,17.56234 -0.41929,20.80044 -2.69344,20.80044 -1.48139,0 -6.00738,1.66086 -10.05775,3.69079 -27.28461,13.6743 -33.10132,43.00203 -13.45764,67.85314 13.57738,17.17667 34.28459,22.42161 53.3925,13.52382 z m 197.34525,46.07151 c -30.06949,-5.40393 -55.61119,-22.59125 -70.11165,-47.17897 -5.94616,-10.08258 -12.10654,-29.47695 -15.5569,-48.97683 -3.69672,-20.89228 -4.08652,-68.8904 -0.73158,-90.0824 6.83901,-43.19952 24.87772,-72.44373 54.96608,-89.11055 15.77136,-8.73621 27.05095,-11.46687 47.36635,-11.46687 21.17734,0 34.35613,3.10829 49.89365,11.76768 25.05008,13.96098 42.61544,38.96226 50.72099,72.1926 7.17279,29.40636 7.65976,83.99633 1.04018,116.60491 -8.70572,42.88499 -32.77796,71.28181 -70.11968,82.71673 -14.16332,4.33715 -34.55132,5.85492 -47.46744,3.5337 z m 33.02782,-48.91142 c 26.22407,-9.81167 40.11534,-42.44142 40.21906,-94.47204 0.0805,-40.39522 -8.29802,-69.27205 -24.4076,-84.12134 -10.36228,-9.55164 -17.18414,-12.09053 -32.36347,-12.04475 -27.10965,0.0817 -42.72322,15.35879 -51.81844,50.7015 -9.3413,36.2989 -4.87021,91.88968 9.35435,116.30608 9.27787,15.92543 26.39604,26.8533 42.34229,27.03037 4.05261,0.0449 11.55582,-1.48493 16.67381,-3.39982 z"
           inkscape:connector-curvature="0"
           sodipodi:nodetypes="ssscssssscssssssscccsssssssssssssssssssssssssscs" />
      </g>
    </g>
  </g>
  <g
     inkscape:groupmode="layer"
     id="layer2"
     inkscape:label="Effects Layer"
     style="opacity:1">
    <path
       sodipodi:type="arc"
       style="fill:#ffffff;fill-opacity:0.35294118;stroke:none"
       id="path3876"
       sodipodi:cx="465.71429"
       sodipodi:cy="254"
       sodipodi:rx="214.28572"
       sodipodi:ry="145.71428"
       d="m 680.00002,254 a 214.28572,145.71428 0 1 1 -428.57145,0 214.28572,145.71428 0 1 1 428.57145,0 z"
       transform="matrix(1,0,0,0.7107843,-30,1.3179305)" />
  </g>
</svg>
