<?xml version="1.0" encoding="UTF-8" standalone="no"?>
<!-- Created with Inkscape (http://www.inkscape.org/) -->

<svg
   xmlns:dc="http://purl.org/dc/elements/1.1/"
   xmlns:cc="http://creativecommons.org/ns#"
   xmlns:rdf="http://www.w3.org/1999/02/22-rdf-syntax-ns#"
   xmlns:svg="http://www.w3.org/2000/svg"
   xmlns="http://www.w3.org/2000/svg"
   xmlns:sodipodi="http://sodipodi.sourceforge.net/DTD/sodipodi-0.dtd"
   xmlns:inkscape="http://www.inkscape.org/namespaces/inkscape"
   width="48"
   height="48"
   id="svg3067"
   version="1.1"
   inkscape:version="0.48.2 r9819"
   inkscape:export-filename="note_selected.png"
   inkscape:export-xdpi="90"
   inkscape:export-ydpi="90"
   sodipodi:docname="note.svg">
  <defs
     id="defs3069" />
  <sodipodi:namedview
     id="base"
     pagecolor="#7a9aff"
     bordercolor="#666666"
     borderopacity="1.0"
     inkscape:pageopacity="1"
     inkscape:pageshadow="2"
     inkscape:zoom="3.959798"
     inkscape:cx="24.927889"
     inkscape:cy="21.885164"
     inkscape:document-units="px"
     inkscape:current-layer="layer1"
     showgrid="false"
     showguides="true"
     inkscape:guide-bbox="true"
     inkscape:window-width="1280"
     inkscape:window-height="1004"
     inkscape:window-x="1597"
     inkscape:window-y="-3"
     inkscape:window-maximized="1"
     units="px" />
  <metadata
     id="metadata3072">
    <rdf:RDF>
      <cc:Work
         rdf:about="">
        <dc:format>image/svg+xml</dc:format>
        <dc:type
           rdf:resource="http://purl.org/dc/dcmitype/StillImage" />
        <dc:title></dc:title>
      </cc:Work>
    </rdf:RDF>
  </metadata>
  <g
     inkscape:label="Layer 1"
     inkscape:groupmode="layer"
     id="layer1"
     transform="translate(0,-1004.3622)">
    <path
       style="fill:#000000;fill-opacity:1;stroke:none"
       d="m 63.800011,1001.4039 0,26.2617 c -1.098402,-0.4959 -2.357727,-0.7808 -3.701785,-0.7808 -4.234894,0 -7.655401,2.8151 -7.655401,6.2725 0,3.4577 3.420507,6.2466 7.655401,6.2466 3.938891,0 8.385679,-2.2512 8.385679,-6.3511 0,-7.7302 0,-24.2831 0,-24.2831 l 17.048389,0 0,18.8438 c -1.069429,-0.4621 -2.306713,-0.7287 -3.601064,-0.7287 -4.234898,0 -7.655405,2.8151 -7.655405,6.2725 0,3.4577 3.420507,6.2466 7.655405,6.2466 3.349471,0 8.511595,-2.2217 8.511595,-6.3726 l 0,-31.6272 -26.642814,0 z"
       id="path3009"
       inkscape:connector-curvature="0"
       sodipodi:nodetypes="ccsscccccsscsccc" />
    <path
       style="fill:#808080;fill-opacity:1;stroke:none"
       d="m 14.678572,956.64792 c -2.216,0 -4.000001,1.784 -4.000001,4 l 0,34 c 0,2.216 1.784001,4 4.000001,4 l 34,0 c 2.216,0 4,-1.784 4,-4 l 0,-34 c 0,-2.216 -1.784,-4 -4,-4 l -34,0 z m 10.5625,5 22.4375,0 0,26.625 c 0,3.4955 -4.335643,5.375 -7.15625,5.375 -3.56623,0 -6.46875,-2.3382 -6.46875,-5.25 0,-2.9115 2.90252,-5.28125 6.46875,-5.28125 1.08998,0 2.130678,0.20465 3.03125,0.59375 l 0,-15.875 -14.375,0 0,20.46875 c 0,3.4526 -3.745539,5.34375 -7.0625,5.34375 -3.566226,0 -6.4375,-2.3382 -6.4375,-5.25 0,-2.9115 2.871274,-5.28125 6.4375,-5.28125 1.131839,0 2.20003,0.23865 3.125,0.65625 l 0,-22.125 z"
       id="rect2993"
       inkscape:connector-curvature="0" />
    <path
       style="fill:#ffffff;fill-opacity:1;stroke:none;stroke-opacity:1;opacity:1;stroke-width:1;stroke-miterlimit:4;stroke-dasharray:none"
       d="m 7.0000006,1007.3622 c -2.216,0 -4.0000014,1.784 -4.0000014,4 l 0,34 c 0,2.216 1.7840014,4 4.0000014,4 l 34.0000004,0 c 2.216,0 4,-1.784 4,-4 l 0,-34 c 0,-2.216 -1.784,-4 -4,-4 l -34.0000003,0 z m 10.5625004,5 22.4375,0 0,26.625 c 0,3.4955 -4.335643,5.375 -7.15625,5.375 -3.56623,0 -6.46875,-2.3382 -6.46875,-5.25 0,-2.9115 2.90252,-5.2812 6.46875,-5.2812 1.08998,0 2.130678,0.2046 3.03125,0.5937 l 0,-15.875 -14.375,0 0,20.4688 c 0,3.4526 -3.745539,5.3437 -7.0625,5.3437 -3.566226,0 -6.4375004,-2.3382 -6.4375004,-5.25 0,-2.9115 2.8712744,-5.2812 6.4375004,-5.2812 1.131839,0 2.20003,0.2386 3.125,0.6562 l 0,-22.125 z"
       id="rect2993-5"
       inkscape:connector-curvature="0" />
  </g>
  <g
     inkscape:groupmode="layer"
     id="layer2"
     inkscape:label="Guides"
     style="display:none"
     transform="translate(0,-1.5258789e-6)">
    <rect
       style="fill:none;stroke:#000000;stroke-opacity:1"
       id="rect3866"
       width="44"
       height="44"
       x="2"
       y="2" />
  </g>
</svg>
